HIERARCHY
ROOT Hips
{
	OFFSET 0.000000 0.000000 0.000000
	CHANNELS 6 Xposition Yposition Zposition Zrotation Yrotation Xrotation 
	JOINT LeftUpLeg_virtual
	{
		OFFSET 0.000000 0.000000 0.000000
		CHANNELS 3 Zrotation Yrotation Xrotation
		JOINT LeftUpLeg
		{
			OFFSET 8.479694 -4.795517 -0.379053
			CHANNELS 3 Zrotation Yrotation Xrotation
			JOINT LeftLeg
			{
				OFFSET 0.485052 -32.551468 0.112863
				CHANNELS 3 Zrotation Yrotation Xrotation
				JOINT LeftFoot
				{
					OFFSET 0.438033 -32.635670 -3.012641
					CHANNELS 3 Zrotation Yrotation Xrotation
					JOINT LeftToeBase
					{
						OFFSET 0.970169 -13.225353 11.864223
						CHANNELS 3 Zrotation Yrotation Xrotation
						End Site
						{
							OFFSET 0.000000 0.000000 0.000000
						}
					}
				}
			}
		}
	}
	JOINT RightUpLeg_virtual
	{
		OFFSET 0.000000 0.000000 0.000000
		CHANNELS 3 Zrotation Yrotation Xrotation
		JOINT RightUpLeg
		{
			OFFSET -8.479694 -4.795517 -0.379053
			CHANNELS 3 Zrotation Yrotation Xrotation
			JOINT RightLeg
			{
				OFFSET -0.484100 -32.551483 0.112903
				CHANNELS 3 Zrotation Yrotation Xrotation
				JOINT RightFoot
				{
					OFFSET -0.438985 -32.635651 -3.012681
					CHANNELS 3 Zrotation Yrotation Xrotation
					JOINT RightToeBase
					{
						OFFSET -0.970169 -13.225354 11.864223
						CHANNELS 3 Zrotation Yrotation Xrotation
						End Site
						{
							OFFSET 0.000000 0.000000 0.000000
						}
					}
				}
			}
		}
	}
	JOINT Spine_virtual
	{
		OFFSET 0.000000 0.000000 0.000000
		CHANNELS 3 Zrotation Yrotation Xrotation
		JOINT Spine
		{
			OFFSET 0.000000 7.722015 1.166203
			CHANNELS 3 Zrotation Yrotation Xrotation
			JOINT Spine1
			{
				OFFSET 0.000000 12.024086 0.248766
				CHANNELS 3 Zrotation Yrotation Xrotation
				JOINT Spine2
				{
					OFFSET -0.000000 11.503036 -0.491240
					CHANNELS 3 Zrotation Yrotation Xrotation
					JOINT Neck_virtual
					{
						OFFSET 0.000000 0.000000 0.000000
						CHANNELS 3 Zrotation Yrotation Xrotation
						JOINT Neck
						{
							OFFSET 0.000000 18.430687 -3.123054
							CHANNELS 3 Zrotation Yrotation Xrotation
							JOINT Head
							{
								OFFSET -0.000000 9.051071 1.034021
								CHANNELS 3 Zrotation Yrotation Xrotation
								End Site
								{
									OFFSET 0.000000 0.000000 0.000000
								}
							}
						}
					}
					JOINT LeftShoulder_virtual
					{
						OFFSET 0.000000 0.000000 0.000000
						CHANNELS 3 Zrotation Yrotation Xrotation
						JOINT LeftShoulder
						{
							OFFSET 6.197824 13.665230 -4.064723
							CHANNELS 3 Zrotation Yrotation Xrotation
							JOINT LeftArm
							{
								OFFSET 7.778132 -0.187073 -1.709282
								CHANNELS 3 Zrotation Yrotation Xrotation
								JOINT LeftForeArm
								{
									OFFSET 21.954697 0.000000 -2.041093
									CHANNELS 3 Zrotation Yrotation Xrotation
									JOINT LeftHand
									{
										OFFSET 22.992908 0.000000 -0.870901
										CHANNELS 3 Zrotation Yrotation Xrotation
										End Site
										{
											OFFSET 0.000000 0.000000 0.000000
										}
									}
								}
							}
						}
					}
					JOINT RightShoulder_virtual
					{
						OFFSET 0.000000 0.000000 0.000000
						CHANNELS 3 Zrotation Yrotation Xrotation
						JOINT RightShoulder
						{
							OFFSET -6.197824 13.665230 -4.064723
							CHANNELS 3 Zrotation Yrotation Xrotation
							JOINT RightArm
							{
								OFFSET -7.778132 -0.187073 -1.709282
								CHANNELS 3 Zrotation Yrotation Xrotation
								JOINT RightForeArm
								{
									OFFSET -21.954697 0.000000 -2.041093
									CHANNELS 3 Zrotation Yrotation Xrotation
									JOINT RightHand
									{
										OFFSET -22.992908 0.000000 -0.870901
										CHANNELS 3 Zrotation Yrotation Xrotation
										End Site
										{
											OFFSET 0.000000 0.000000 0.000000
										}
									}
								}
							}
						}
					}
				}
			}
		}
	}
}
MOTION
Frames: 11
Frame Time: 0.033333
12.235884 80.803955 6.814193 -179.966032 -11.264318 179.969870 -1.546340 -0.661212 14.725688 3.747741 -4.400724 -21.050121 3.932900 4.519867 27.183719 1.476655 -5.096865 -13.347585 0.000000 0.000000 0.000000 2.840786 -1.258007 15.942638 -5.246906 5.656126 -22.057003 0.098752 7.963760 30.007097 10.201728 4.766030 -16.095411 0.000000 0.000000 0.000000 3.977789 1.749913 2.108287 0.759035 -1.935959 -7.517728 -1.169797 -1.642128 7.834744 0.015940 0.000043 0.017717 -1.709697 -0.062797 8.276935 -1.949175 2.132587 -4.797851 0.000000 0.000000 0.000000 0.168860 0.643384 5.576015 -8.226498 -0.582713 1.118643 -58.480660 0.776836 -8.057070 6.979135 -16.672104 4.545431 0.000000 0.000000 0.000000 -4.728345 2.249250 4.693672 27.024410 -2.479152 8.970771 45.260119 3.359906 -9.795405 -3.045658 17.136072 -3.155973 0.000000 0.000000 0.000000 
12.319326 80.795006 6.786939 179.985293 -11.246945 179.949803 -1.558304 -0.505288 14.800508 3.589080 -4.130101 -21.047598 3.926350 4.906596 27.476171 1.869680 -4.630754 -13.622086 0.000000 0.000000 0.000000 2.788870 -1.036663 16.106261 -5.393158 6.021718 -21.885500 -0.038771 8.270946 29.479308 10.108376 4.666151 -16.033939 0.000000 0.000000 0.000000 4.002895 1.709995 2.190402 0.686160 -1.953235 -7.544562 -1.153183 -1.674662 7.835124 -0.033977 -0.048491 0.027107 -1.597673 0.126383 8.287954 -1.924428 2.317935 -4.827282 0.000000 0.000000 0.000000 0.307354 0.687566 5.563414 -8.338256 -0.394118 1.128627 -58.560013 1.789820 -8.265243 7.068142 -16.198641 4.612856 0.000000 0.000000 0.000000 -4.601737 2.254685 4.754247 27.041434 -2.515081 8.901009 45.413842 2.854190 -10.314423 -3.048160 16.949331 -3.217727 0.000000 0.000000 0.000000 
12.439038 80.804817 6.775557 179.917838 -11.322316 179.986317 -1.612889 -0.612466 14.854963 3.651687 -4.362339 -21.156504 3.910113 4.813485 27.471584 1.949590 -4.516465 -13.524272 0.000000 0.000000 0.000000 2.757198 -1.200830 16.150355 -5.359819 5.915410 -21.919689 -0.024065 8.334606 29.332476 10.118768 4.696576 -15.991932 0.000000 0.000000 0.000000 4.031860 1.684420 2.162734 0.637694 -1.885111 -7.537606 -1.078719 -1.655716 7.905439 -0.022586 -0.031918 0.024541 -1.508196 0.123930 8.344360 -1.925947 2.185070 -4.829910 0.000000 0.000000 0.000000 0.356722 0.690121 5.684744 -8.436768 -0.332268 1.129896 -58.545499 2.847321 -8.690746 7.150884 -15.965816 4.804440 0.000000 0.000000 0.000000 -4.564090 2.172624 4.854816 27.021830 -2.623013 8.792712 45.613410 2.126189 -11.185600 -3.094869 16.836514 -3.292446 0.000000 0.000000 0.000000 
12.574307 80.814857 6.778029 179.955103 -11.369958 -179.964160 -1.575439 -0.664543 14.897338 3.782527 -4.535769 -21.256893 3.984752 4.779389 27.421321 1.991597 -4.453796 -13.410580 0.000000 0.000000 0.000000 2.791023 -1.283111 16.101452 -5.288514 5.845147 -21.906876 0.013218 8.316181 29.195633 10.131181 4.747820 -15.964647 0.000000 0.000000 0.000000 4.100072 1.636597 2.110349 0.632859 -1.766594 -7.466908 -1.011096 -1.616084 7.963732 -0.007666 0.006522 0.044629 -1.424410 0.091935 8.388078 -1.965103 2.243442 -4.876090 0.000000 0.000000 0.000000 0.415416 0.640056 5.741311 -8.664441 -0.335615 1.210471 -58.607374 3.612939 -9.288821 7.168855 -16.235973 5.049812 0.000000 0.000000 0.000000 -4.490511 2.208576 4.796959 26.860784 -2.742819 8.681315 46.253734 1.479607 -12.052744 -3.246083 16.719557 -3.328226 0.000000 0.000000 0.000000 
12.715087 80.821693 6.799892 179.964802 -11.537437 -179.903795 -1.504711 -0.822962 14.878614 3.894988 -4.801561 -21.335056 3.814916 4.668848 27.414223 2.143028 -4.271059 -13.266588 0.000000 0.000000 0.000000 2.847954 -1.301727 15.980276 -5.200361 5.697081 -21.818484 0.030880 8.204595 29.123766 10.113850 4.793230 -16.017497 0.000000 0.000000 0.000000 4.142131 1.544648 1.941098 0.687611 -1.647897 -7.307182 -0.965047 -1.603644 8.036526 -0.036976 0.007537 0.016227 -1.355187 0.120868 8.451615 -2.056836 2.324277 -4.930754 0.000000 0.000000 0.000000 0.463879 0.630468 5.777335 -9.023913 -0.432515 1.332236 -58.539653 3.702693 -9.881194 7.204494 -16.849300 5.384071 0.000000 0.000000 0.000000 -4.409118 2.162498 4.900748 26.664440 -2.605722 8.483210 46.716602 1.080669 -12.483178 -3.412989 16.780134 -3.526548 0.000000 0.000000 0.000000 
12.864126 80.809608 6.865820 179.910571 -11.776256 -179.911732 -1.446513 -0.925269 14.806465 3.963794 -5.102004 -21.415723 3.701539 4.598831 27.445105 2.245470 -4.152212 -13.202517 0.000000 0.000000 0.000000 2.857728 -1.731753 15.871749 -5.142271 5.707989 -21.802078 0.075973 8.359089 29.196904 10.045809 4.814972 -16.076008 0.000000 0.000000 0.000000 4.209136 1.486588 1.953536 0.718718 -1.524863 -7.283234 -0.996179 -1.568856 8.109019 -0.007683 0.009341 0.060268 -1.369710 0.076292 8.451205 -2.170938 2.374617 -4.958434 0.000000 0.000000 0.000000 0.430741 0.622886 5.806579 -9.439358 -0.786216 1.450118 -58.323484 2.800816 -10.274482 7.191681 -17.434147 5.438317 0.000000 0.000000 0.000000 -4.457468 2.114277 4.996657 26.590049 -2.316929 8.360245 46.953316 1.099730 -12.590756 -3.477641 17.134870 -3.446421 0.000000 0.000000 0.000000 
13.009792 80.783592 6.952977 179.988189 -12.178770 -179.929080 -1.293848 -0.953332 14.739475 4.099084 -5.310013 -21.569167 3.721894 4.545628 27.572890 2.139220 -4.289877 -13.198202 0.000000 0.000000 0.000000 2.991776 -1.605036 15.740661 -5.013211 5.539095 -21.711076 0.057803 8.116060 29.311859 9.888370 4.775749 -16.257110 0.000000 0.000000 0.000000 4.343547 1.492115 1.862831 0.817712 -1.430788 -7.184263 -1.045015 -1.596474 8.197260 -0.000800 0.022963 0.043520 -1.447648 -0.051938 8.547218 -2.323766 2.489139 -5.047544 0.000000 0.000000 0.000000 0.334734 0.600620 5.894363 -9.926733 -1.458681 1.610712 -57.749523 0.910555 -9.947373 7.080436 -17.869250 5.605403 0.000000 0.000000 0.000000 -4.526246 2.156888 5.057419 26.563103 -2.039997 8.173362 47.021713 1.480606 -12.216472 -3.591339 17.714521 -3.459279 0.000000 0.000000 0.000000 
13.153653 80.753006 7.106812 179.935268 -12.719901 -179.951852 -1.132763 -0.979173 14.694583 4.125574 -5.624182 -21.778299 3.610333 4.433573 27.715337 2.004843 -4.171544 -13.091674 0.000000 0.000000 0.000000 3.010247 -1.317995 15.576122 -4.849582 5.268707 -21.618824 0.020418 7.721114 29.551985 9.642430 4.697947 -16.547977 0.000000 0.000000 0.000000 4.451551 1.562810 1.712742 0.875912 -1.371214 -7.007054 -1.134306 -1.620973 8.322436 -0.017457 0.004952 0.047081 -1.496936 -0.019432 8.586549 -2.447641 2.530433 -5.196997 0.000000 0.000000 0.000000 0.243714 0.559371 5.941432 -10.434887 -2.556756 1.798666 -56.603598 -2.015318 -8.577453 6.837418 -18.182285 5.800574 0.000000 0.000000 0.000000 -4.586463 2.078951 5.107728 26.579145 -1.552376 8.030223 46.586658 2.339726 -11.562702 -3.697890 18.449145 -3.583857 0.000000 0.000000 0.000000 
13.310714 80.720802 7.343147 179.934968 -13.316268 -179.917606 -1.004131 -0.927340 14.568522 4.234909 -5.867663 -22.129883 3.612757 4.328372 27.938418 1.942391 -4.442458 -13.020043 0.000000 0.000000 0.000000 3.078775 -1.134228 15.341088 -4.695302 5.007345 -21.600162 -0.015505 7.401964 29.839884 9.373472 4.633463 -16.827663 0.000000 0.000000 0.000000 4.568685 1.656871 1.497977 0.948454 -1.430055 -6.842609 -1.209319 -1.735271 8.464922 -0.006701 -0.012036 0.003660 -1.551405 -0.186465 8.743971 -2.632975 2.648082 -5.341660 0.000000 0.000000 0.000000 0.173965 0.481157 6.038905 -10.889313 -3.799045 2.071787 -54.882325 -5.815156 -6.358340 6.409680 -18.552694 6.249617 0.000000 0.000000 0.000000 -4.570219 1.968325 5.306109 26.627448 -0.757350 7.841392 45.695004 3.771154 -10.680554 -3.665538 19.259887 -3.375625 0.000000 0.000000 0.000000 
13.501540 80.693741 7.689970 179.958928 -13.928053 -179.988749 -0.894868 -0.713601 14.407961 4.394120 -6.146472 -22.540104 3.567238 4.080746 28.250294 1.744941 -4.595393 -12.895545 0.000000 0.000000 0.000000 3.159931 -1.000594 15.146563 -4.542473 4.841199 -21.575594 -0.062518 7.159657 30.014525 9.084572 4.572307 -16.990734 0.000000 0.000000 0.000000 4.683849 1.837660 1.355129 1.035232 -1.466795 -6.614619 -1.238011 -1.796384 8.573216 -0.011255 0.012306 0.029892 -1.574824 -0.274182 8.782005 -2.807918 2.726026 -5.484775 0.000000 0.000000 0.000000 0.137161 0.316685 6.078509 -11.170106 -5.261422 2.367822 -52.555376 -10.329348 -3.920920 5.804329 -19.161490 6.726057 0.000000 0.000000 0.000000 -4.580797 1.835153 5.347907 26.814267 0.146511 7.688746 44.207283 5.786496 -9.693469 -3.645172 20.183972 -3.191557 0.000000 0.000000 0.000000 
13.747811 80.682198 8.149686 -179.989473 -14.779771 -179.946006 -0.769696 -0.586575 14.118303 4.618435 -6.473322 -23.065808 3.455972 3.550197 28.505296 1.522526 -4.754813 -12.638460 0.000000 0.000000 0.000000 3.270879 -0.969988 14.857109 -4.369150 4.574774 -21.633936 -0.106395 6.830576 30.078384 8.810460 4.566577 -17.102442 0.000000 0.000000 0.000000 4.782403 1.978127 1.141717 1.151860 -1.591441 -6.356819 -1.243883 -1.941160 8.678404 -0.064115 -0.016627 0.015437 -1.537536 -0.442848 8.905648 -3.003758 2.777339 -5.697054 0.000000 0.000000 0.000000 0.155692 0.226327 6.246540 -11.210495 -6.676814 2.564437 -49.694274 -15.176467 -2.120676 5.136925 -19.993874 6.785626 0.000000 0.000000 0.000000 -4.509886 1.703057 5.497347 26.993724 1.316208 7.533711 42.251065 8.291061 -8.766733 -3.583908 21.252028 -3.025305 0.000000 0.000000 0.000000 
